<svg width="20" height="20" viewBox="0 0 20 20" fill="none" xmlns="http://www.w3.org/2000/svg">
<path d="M6.67187 9.69979C7.44364 11.2935 8.73238 12.579 10.3281 13.3467C10.4458 13.4024 10.576 13.4265 10.7059 13.4167C10.8358 13.4068 10.9608 13.3633 11.0687 13.2904L13.4125 11.7248C13.516 11.6546 13.6357 11.6117 13.7603 11.6002C13.8849 11.5887 14.0104 11.609 14.125 11.6592L18.5125 13.5435C18.6624 13.6059 18.7877 13.7159 18.869 13.8565C18.9504 13.9971 18.9832 14.1606 18.9625 14.3217C18.8234 15.407 18.2937 16.4046 17.4723 17.1276C16.6509 17.8506 15.5942 18.2495 14.5 18.2498C11.1185 18.2498 7.87548 16.9065 5.48439 14.5154C3.0933 12.1243 1.75 8.8813 1.75 5.49979C1.75025 4.40553 2.1492 3.34886 2.87221 2.5275C3.59522 1.70613 4.59274 1.17635 5.67812 1.03729C5.83922 1.01659 6.00266 1.04943 6.14326 1.13074C6.28386 1.21206 6.39384 1.33733 6.45625 1.48729L8.34062 5.88416C8.38963 5.99699 8.41013 6.12013 8.40032 6.24275C8.39051 6.36537 8.35069 6.48369 8.28437 6.58729L6.71875 8.96854C6.64905 9.07624 6.60814 9.20002 6.59993 9.32805C6.59172 9.45607 6.61649 9.58407 6.67187 9.69979Z" stroke="#FF9330" stroke-width="2" stroke-linecap="round" stroke-linejoin="round"/>
</svg>
