<svg width="20" height="18" viewBox="0 0 20 18" fill="none" xmlns="http://www.w3.org/2000/svg">
<path d="M19.7219 0.19537C19.6112 0.0998069 19.4765 0.0362509 19.3324 0.0115496C19.1883 -0.0131517 19.0402 0.00193793 18.904 0.0551928L0.809497 7.13639C0.553057 7.23611 0.33595 7.41643 0.190863 7.65022C0.0457751 7.884 -0.0194404 8.15859 0.00503419 8.43265C0.0295088 8.7067 0.142349 8.96539 0.326566 9.16976C0.510784 9.37414 0.756408 9.51314 1.02646 9.56584L5.71482 10.4864V15.714C5.7139 15.9988 5.79852 16.2772 5.95771 16.5133C6.11691 16.7494 6.34334 16.9322 6.60767 17.0381C6.87159 17.1459 7.16183 17.1717 7.44065 17.1124C7.71947 17.053 7.97397 16.911 8.17105 16.7051L10.4318 14.3604L14.0183 17.4997C14.2771 17.7292 14.6108 17.8563 14.9567 17.8569C15.1083 17.8567 15.2589 17.8329 15.4031 17.7863C15.6388 17.7115 15.8508 17.5763 16.0179 17.3941C16.1851 17.212 16.3016 16.9892 16.3558 16.7479L19.9799 0.981972C20.0123 0.839785 20.0054 0.691456 19.96 0.552886C19.9145 0.414316 19.8322 0.290728 19.7219 0.19537ZM14.263 3.40963L6.26392 9.13816L1.83538 8.26942L14.263 3.40963ZM7.14338 15.714V11.4748L9.35676 13.4158L7.14338 15.714ZM14.9585 16.4283L7.57641 9.95512L18.2013 2.34L14.9585 16.4283Z" fill="#FF9330"/>
</svg>
